<?xml version="1.0" encoding="utf-8"?>
<!-- Generator: Adobe Illustrator 22.0.0, SVG Export Plug-In . SVG Version: 6.00 Build 0)  -->
<svg version="1.1" id="图层_1" xmlns="http://www.w3.org/2000/svg" xmlns:xlink="http://www.w3.org/1999/xlink" x="0px" y="0px"
	 viewBox="0 0 114 40" style="enable-background:new 0 0 114 40;" xml:space="preserve">
<style type="text/css">
	.st0{fill:#FFFFFF;}
	.st1{fill:#3382B6;}
</style>
<g>
	<g>
		<g>
			<path class="st0" d="M16.2,8.8l0,8c0,0-0.4,0-0.9,0.2c-0.3,0.1-0.9,0.4-0.9,0.4s-0.1-3.7-0.1-5c0-1.3,0-2.7,0-2.7L16.2,8.8z"/>
		</g>
		<g>
			<path class="st0" d="M19,17.7c0,0-4.7,0.9-5.1,5.5c-0.3,4.6-0.1,6.4-0.1,6.4L12,28.7c0,0-0.2-1.5,0.1-4.5
				c0.1-1.4,0.4-2.7,0.7-3.4c1-2.5,2.5-2.8,4-3.1C17.7,17.5,19,17.7,19,17.7z"/>
		</g>
		<g>
			<path class="st0" d="M21.3,22.7l0.1,4l0,5.3l-2.1-1l0-7.7C19.3,23.3,21.1,23,21.3,22.7z"/>
		</g>
		<path class="st0" d="M16.4,8.9l0-0.2l-2.1-1l-1.9,1.1l0,8.3c0,0.3,0.1,1,0.4,1.9l0.1,0.3L13,19c0.8-1.1,1.9-1.8,3.2-2l0.1,0
			L16.4,8.9z M16,16.7c-1.2,0.2-2.3,0.9-3.1,1.8c-0.2-0.7-0.3-1.3-0.3-1.5V9l0-0.1L14.3,8L16,8.9L16,16.7z"/>
		<path class="st0" d="M23.2,23.5c0-1.5-0.2-2.5-0.3-2.7l-0.1-0.4l-0.2,0.4c0,0.1-0.7,1.3-1.5,1.7c-0.8,0.5-1.8,0.5-1.8,0.5l-0.1,0
			l0,7.6l0,0.5l2.2,1.1l0.1,0l1.9-1L23.2,23.5z M19.5,23.3c0.3,0,1.1-0.2,1.8-0.6c0.7-0.4,1.2-1.1,1.5-1.5c0.1,0.4,0.2,1.2,0.2,2.3
			v7.4l0,0.1l-1.5,0.8l-1.9-1l0-0.3L19.5,23.3z"/>
		<path class="st0" d="M19.3,17.6l-0.1,0c-0.2,0-1.1-0.2-2.1-0.1c-1.4,0.1-2.6,0.6-3.4,1.5c-1.8,2-1.8,6-1.8,7.7l0,2.1h0.3l0-2.1
			c0-1.7,0-5.6,1.7-7.5c1.6-1.8,4.5-1.4,5.1-1.3l0,0.1c0,1-0.4,2-1.2,2.6l0,0c-0.9,0.7-1.5,1.8-1.5,3v0.1h0.3v-0.1
			c0-1.1,0.5-2.1,1.3-2.7l0,0c0.9-0.7,1.3-1.7,1.3-2.9L19.3,17.6z"/>
		<path class="st0" d="M21.8,11.7L21.8,11.7l-1.9,1l1.9,1.1l0,0V17c0,2.4-1,4.6-2.4,5.8c-0.9,0.7-1.9,1-2.9,0.7l-0.1,0l-0.2,0.1
			c0,0,0.2,0,0.2,0c0.4,0.1,0.8,0.1,1.2,0.1c1.1,0,2.3-0.3,3.3-0.9l0,0l0,0c1.7-1.1,2.8-3,2.8-5.1l0-1.1v-3.9L21.8,11.7z"/>
	</g>
	<g>
		<path class="st1" d="M31.7,11.5v15.3l3.2,1.9c0-0.1,0-0.2,0-0.3V11.5c0-1.1-0.7-2.3-1.6-2.8L19.5,0.3c-0.2-0.1-0.4-0.2-0.6-0.3
			v3.7L31.7,11.5C31.7,11.5,31.7,11.5,31.7,11.5z"/>
		<g>
			<path class="st1" d="M31,28.8l-13.2,8c0,0,0,0,0,0l-13.2-8l-3.1,1.8c0.2,0.2,0.5,0.5,0.7,0.6l13.9,8.4c0.5,0.3,1.1,0.4,1.6,0.4
				c0.6,0,1.2-0.1,1.6-0.4l13.9-8.4c0.3-0.2,0.5-0.4,0.7-0.6L31,28.8z"/>
			<path class="st1" d="M4,26.8V11.5c0,0,0-0.1,0.1-0.1l12.8-7.7V0c-0.2,0.1-0.4,0.2-0.6,0.3L2.3,8.7c-0.9,0.6-1.6,1.7-1.6,2.8v16.9
				c0,0.1,0,0.2,0,0.3L4,26.8z"/>
		</g>
	</g>
	<g>
		<path class="st0" d="M51.7,13.7c-0.4,1.1-0.9,2.2-1.5,3.3v9.8h-1.3v-7.7c-0.4,0.5-0.7,0.9-1.1,1.3C47.7,20,47.3,19.3,47,19
			c1.3-1.4,2.6-3.5,3.3-5.7L51.7,13.7z M55.3,18c-0.3,3.6-1.1,6.8-3.8,8.8c-0.2-0.4-0.6-0.8-1-1c2.5-1.7,3.2-4.5,3.4-7.7h-3.1v-1.3
			H54c0-1.1,0-2.1,0-3.2h1.4c0,1.1,0,2.2-0.1,3.2h5.1V18H55.3z M58.9,25.2c0.4,0,0.5-0.3,0.5-2.3c0.3,0.3,0.9,0.5,1.2,0.6
			c-0.1,2.3-0.5,2.9-1.6,2.9h-1.6c-1.3,0-1.6-0.4-1.6-1.8V19h1.3v5.6c0,0.5,0.1,0.5,0.5,0.5H58.9z M58.7,16.5
			c-0.4-0.6-1.2-1.6-1.9-2.3l0.9-0.7c0.7,0.6,1.6,1.5,2,2.1L58.7,16.5z"/>
		<path class="st0" d="M78.2,25.3v1.1H65v-1.1h3.8c-0.1-0.3-0.3-0.8-0.5-1.1l0.9-0.2H67v-2.9h9.1V24h-2.2l1,0.2
			c-0.2,0.4-0.4,0.7-0.5,1H78.2z M70.9,15.2h-5.7v-1h5.7v-0.9h1.4v0.9H78v1h-5.8v0.8h4.6v1H66.4v-1h4.5V15.2z M76.4,20.3v-1.5h-9.8
			v1.5h-1.3v-2.5h12.4v2.5H76.4z M67.4,20.4v-0.9h8.2v0.9H67.4z M68.3,23.1h6.4V22h-6.4V23.1z M69.6,24c0.3,0.4,0.5,0.9,0.6,1.3H73
			c0.2-0.4,0.4-0.9,0.5-1.3H69.6z"/>
		<path class="st0" d="M84.8,25v1.1h-1.2v-4.9c-0.2,0.4-0.4,0.7-0.7,1c-0.1-0.4-0.4-1.2-0.5-1.6c1-1.3,1.6-3.3,2-5.4h-1.8V14h5.5
			v1.2h-2.4c-0.2,1.1-0.5,2.2-0.9,3.3h2.9V25H84.8z M86.6,19.7h-1.8v4.1h1.8V19.7z M95.9,16.5h-5.7v2.6c0,2.3-0.2,5.5-1.8,7.6
			c-0.2-0.3-0.9-0.7-1.2-0.8c1.4-2,1.6-4.8,1.6-6.8v-4H92c-0.2-0.5-0.6-1.1-0.9-1.5l1.2-0.5c0.4,0.6,0.9,1.4,1.2,1.9l-0.3,0.1h2.7
			V16.5z"/>
		<path class="st0" d="M102.3,20c-0.6-0.5-1.7-1.1-2.6-1.5l0.7-1c0.9,0.4,2,0.9,2.6,1.4L102.3,20z M100.2,25.7
			c0.7-1.1,1.8-3,2.6-4.7l1,0.9c-0.7,1.5-1.6,3.3-2.4,4.7L100.2,25.7z M103.1,16c-0.6-0.5-1.7-1.2-2.6-1.6l0.8-1
			c0.9,0.4,2.1,1,2.7,1.5L103.1,16z M110.9,25.4c0.9,0,1-0.4,1.1-2.1c0.3,0.2,0.9,0.5,1.3,0.5c-0.2,2.1-0.6,2.8-2.3,2.8h-3.6
			c-1.9,0-2.5-0.5-2.5-2.3v-4.4l-1.1,0.5l-0.5-1.2l1.7-0.6v-3.8h1.4V18l1.8-0.7v-4h1.4v3.5l2-0.8l0.1-0.1l0.2-0.2l1,0.4l-0.1,0.2
			c0,2.6,0,4.6-0.1,5.2c-0.1,0.7-0.4,1-0.8,1.2c-0.4,0.1-1.1,0.2-1.6,0.2c0-0.4-0.2-1-0.3-1.3c0.4,0,0.8,0,1,0
			c0.2,0,0.4-0.1,0.4-0.4c0.1-0.3,0.1-1.6,0.1-3.8l-1.9,0.8v5.3h-1.4v-4.7l-1.8,0.7v4.9c0,0.9,0.2,1,1.2,1H110.9z"/>
	</g>
</g>
</svg>
